<?xml version="1.0" standalone="no"?><!DOCTYPE svg PUBLIC "-//W3C//DTD SVG 1.1//EN" "http://www.w3.org/Graphics/SVG/1.1/DTD/svg11.dtd"><svg t="1517119171919" class="icon" style="" viewBox="0 0 1024 1024" version="1.1" xmlns="http://www.w3.org/2000/svg" p-id="9941" xmlns:xlink="http://www.w3.org/1999/xlink" width="200" height="200"><defs><style type="text/css"></style></defs><path d="M233.38 341.31c24.67-62.59 76.33-79 120.51-79 66.6 0 136.54 51.68 174.14 134.57 38.62-84 109.9-134.57 174.18-134.57 44.2 0 83.84 18.74 106 50.17 26.35 37.37 34.93 88.48 3.61 147.34a434.72 434.72 0 0 1 80.15-0.32c20.61-71.69 13.44-141.56-22.69-191-39.87-54.44-98.67-81.89-167.06-81.89-64.7 0-123.82 30.65-174.17 86.24-50.33-55.59-109.44-86.24-174.15-86.24-75.23 0-149 39.15-182.32 108.81 5.84 14.08 33.95 31.15 61.8 45.89z" fill="#F24E41" p-id="9942"></path><path d="M697.61 556.78c1.07-16.41 1.07-29.73 10.88-42.53C606.85 568.23 599.6 684 539.82 761.8 525 668 471.11 568.23 428.48 514c-30.73-39.07-66.25-79.52-91.8-117.78 0.69 16.66-3.56 36-3 52.65-42.09-58.16-225.3-91.67-198.92-173.23-39.8 56.86-23 201.07 16 260.59 59.2 90.32 174 114.16 256.19 175.86 40.7 30.54 84.27 68.91 121.09 125.34 59.41-88.21 122.22-126.71 174.6-163.49 36.8-25.81 65.61-47.17 97.44-79.36 36.61-37 51.53-94.8 111.93-100.44-31.85-4.62-180.68-20.82-214.4 62.64z" fill="#F24E41" p-id="9943"></path></svg>